<svg fill="none" height="360" viewBox="0 0 360 360" width="360" xmlns="http://www.w3.org/2000/svg"><path d="m0 132.02c0-46.6982 0-70.0474 9.2321-87.8199 7.7798-14.9767 19.9913-27.1882 34.968-34.968 17.7725-9.2321 41.1217-9.2321 87.8199-9.2321h95.96c46.698 0 70.047 0 87.82 9.2321 14.977 7.7798 27.188 19.9913 34.968 34.968 9.232 17.7725 9.232 41.1217 9.232 87.8199v95.96c0 46.698 0 70.047-9.232 87.82-7.78 14.977-19.991 27.188-34.968 34.968-17.773 9.232-41.122 9.232-87.82 9.232h-95.96c-46.6982 0-70.0474 0-87.8199-9.232-14.9767-7.78-27.1882-19.991-34.968-34.968-9.2321-17.773-9.2321-41.122-9.2321-87.82z" fill="#0056d2"/><path d="m189.153 307c-72.076 0-129.752-57.676-129.752-127.114 0-70.509 57.676-127.186 129.752-127.186 46.34 0 86.478 23.17 109.648 58.175l-54.04 31.368c-12.333-17.466-32.438-28.802-55.608-28.802-37.072 0-67.442 30.87-67.442 66.373 0 35.504 30.37 66.374 67.442 66.374 24.168 0 45.271-12.334 57.105-31.369l53.541 31.939c-22.671 36.074-63.807 60.242-110.646 60.242z" fill="#fff"/></svg>